<?xml version="1.0" standalone="no"?>
<!DOCTYPE svg PUBLIC "-//W3C//DTD SVG 20010904//EN"
 "http://www.w3.org/TR/2001/REC-SVG-20010904/DTD/svg10.dtd">
<svg version="1.0" xmlns="http://www.w3.org/2000/svg"
 width="980.000000pt" height="980.000000pt" viewBox="0 0 980.000000 980.000000"
 preserveAspectRatio="xMidYMid meet">
<metadata>
Created by potrace 1.14, written by Peter Selinger 2001-2017
</metadata>
<g transform="translate(0.000000,980.000000) scale(0.100000,-0.100000)"
fill="#000000" stroke="none">
<path d="M6650 9579 c-46 -18 -90 -71 -108 -129 -14 -47 -17 -100 -17 -355 1
-402 11 -442 130 -501 46 -22 64 -26 102 -20 97 13 166 84 182 186 14 82 14
542 1 634 -20 137 -80 196 -200 195 -36 0 -76 -5 -90 -10z"/>
<path d="M4630 8769 c-91 -41 -133 -102 -134 -195 -1 -51 4 -67 26 -100 33
-47 441 -456 483 -484 43 -28 155 -28 201 0 43 27 92 102 99 154 12 81 -5 113
-141 260 -215 233 -399 386 -464 386 -14 0 -45 -10 -70 -21z"/>
<path d="M8699 8763 c-41 -21 -108 -82 -275 -248 -128 -127 -228 -235 -237
-257 -9 -20 -17 -61 -17 -91 0 -45 6 -63 33 -103 48 -73 86 -94 167 -94 91 0
113 16 351 257 241 243 259 267 259 340 0 56 -19 114 -48 147 -21 23 -130 76
-158 76 -11 0 -45 -12 -75 -27z"/>
<path d="M1370 8769 c-121 -23 -149 -101 -150 -406 l0 -162 -151 74 c-219 107
-282 117 -368 54 -63 -45 -81 -81 -81 -164 0 -113 32 -148 222 -246 l109 -55
-109 -58 c-175 -93 -232 -154 -232 -248 0 -50 43 -133 86 -167 35 -28 99 -44
146 -38 21 3 111 40 200 82 123 58 163 73 169 63 5 -7 9 -105 9 -218 l0 -206
48 -46 c62 -60 106 -82 167 -82 64 0 133 38 167 91 22 36 23 50 28 250 3 116
8 214 11 218 4 3 76 -26 160 -65 182 -85 231 -98 289 -81 46 14 114 70 136
112 23 46 18 135 -11 185 -29 50 -71 81 -208 154 l-98 53 96 51 c110 59 179
109 209 149 17 23 21 43 21 106 0 70 -3 81 -29 115 -86 113 -171 111 -424 -9
-76 -36 -141 -65 -145 -65 -4 0 -7 92 -7 205 0 214 -6 252 -48 298 -43 47
-133 71 -212 56z"/>
<path d="M6625 8150 c-435 -38 -857 -281 -1144 -659 -34 -44 -63 -81 -65 -81
-1 0 -36 11 -77 25 -187 64 -377 100 -605 115 -313 20 -576 -23 -897 -144
-474 -180 -890 -493 -1210 -911 -54 -71 -105 -138 -111 -147 -11 -16 -19 -15
-109 8 -417 106 -821 97 -1192 -27 -434 -145 -754 -417 -974 -830 -175 -331
-261 -733 -231 -1084 41 -479 231 -873 581 -1210 243 -233 467 -363 850 -491
l144 -49 1600 0 c1715 0 1655 -2 1873 51 320 78 624 221 892 420 134 99 393
358 494 494 248 334 394 679 474 1124 l27 150 109 22 c59 13 144 35 189 49
118 38 307 135 417 212 115 82 324 289 401 398 167 236 266 485 299 749 17
133 7 369 -20 501 -91 436 -342 820 -694 1063 -154 107 -413 218 -563 241
-100 15 -340 21 -458 11z m364 -420 c366 -75 677 -305 833 -615 95 -189 133
-376 125 -623 -4 -144 -9 -183 -35 -283 -35 -132 -91 -268 -144 -349 -99 -152
-300 -340 -441 -410 -129 -65 -387 -141 -387 -114 0 12 -56 288 -70 349 -131
549 -453 1047 -905 1403 -90 71 -155 133 -155 148 0 22 221 243 308 308 254
191 545 253 871 186z m-2039 -624 c129 -18 227 -53 435 -156 377 -187 607
-385 815 -700 127 -194 251 -496 284 -695 34 -203 45 -497 26 -683 -54 -508
-327 -1024 -714 -1349 -220 -185 -431 -293 -736 -378 -250 -69 -427 -77 -1785
-77 -1072 0 -1542 11 -1671 38 -316 65 -632 254 -834 499 -164 200 -285 467
-336 740 -27 145 -25 394 4 532 61 286 197 530 416 748 171 171 317 262 526
329 167 54 282 69 483 64 195 -6 293 -23 521 -93 78 -24 162 -46 187 -50 95
-14 170 47 307 248 191 281 420 517 643 666 238 159 590 303 804 331 96 12
497 3 625 -14z"/>
<path d="M8965 6939 c-105 -16 -170 -79 -182 -177 -7 -58 8 -110 44 -153 45
-53 90 -68 235 -80 152 -13 496 -6 576 12 97 20 162 102 162 202 0 74 -44 141
-115 177 -50 25 -52 25 -355 27 -168 1 -332 -3 -365 -8z"/>
<path d="M8315 5099 c-59 -24 -112 -71 -131 -116 -22 -51 -18 -132 10 -177 12
-21 124 -139 247 -262 248 -249 266 -261 364 -251 64 6 100 29 140 87 36 53
47 149 21 198 -41 80 -385 422 -501 498 -66 44 -90 47 -150 23z"/>
<path d="M8056 3647 c-22 -12 -48 -36 -57 -52 -21 -36 -39 -164 -40 -290 -1
-49 -4 -114 -7 -143 l-7 -53 -110 54 c-144 70 -237 107 -272 107 -117 0 -213
-96 -213 -212 0 -93 50 -147 221 -238 56 -30 102 -59 102 -65 0 -5 -43 -32
-95 -60 -131 -69 -175 -102 -204 -150 -60 -104 -4 -247 112 -285 63 -21 120
-8 292 70 89 40 165 71 168 68 3 -3 9 -99 14 -212 6 -132 15 -218 24 -239 34
-83 143 -126 247 -97 46 13 114 85 128 136 6 22 11 107 11 189 0 159 7 225 22
225 5 0 84 -35 176 -77 186 -85 225 -93 297 -56 75 39 115 105 115 189 0 93
-58 160 -208 238 -48 25 -93 50 -101 55 -10 6 6 20 60 51 223 127 254 163 247
276 -5 82 -40 134 -114 170 -76 37 -109 31 -307 -61 -92 -42 -171 -74 -175
-71 -3 4 -9 101 -12 215 -5 207 -6 209 -33 248 -60 87 -193 120 -281 70z"/>
<path d="M1744 2019 c-49 -22 -231 -110 -405 -195 l-315 -155 -290 143 c-389
194 -469 228 -531 228 -69 0 -130 -33 -170 -94 -28 -41 -33 -57 -33 -110 0
-77 19 -110 94 -160 156 -104 877 -456 932 -456 25 0 222 89 517 234 l297 146
287 -143 c360 -179 505 -241 541 -232 49 12 254 106 526 242 l270 135 315
-156 c373 -183 483 -230 522 -222 41 8 243 99 543 245 l269 131 301 -149 c371
-184 489 -235 525 -226 106 26 874 411 945 473 86 77 70 231 -33 310 -87 66
-140 50 -617 -187 l-319 -158 -384 191 c-301 149 -392 190 -420 189 -51 -2
-160 -50 -516 -227 l-310 -153 -336 168 c-184 92 -363 179 -396 193 -60 25
-63 25 -115 10 -29 -9 -216 -95 -416 -192 l-364 -176 -116 59 c-178 88 -611
295 -663 315 l-45 18 -90 -39z"/>
<path d="M124 1005 c-50 -26 -105 -88 -114 -131 -10 -42 -4 -113 12 -157 16
-42 103 -93 458 -270 346 -173 495 -237 548 -237 52 0 173 52 494 211 164 82
305 149 312 149 7 0 118 -51 247 -114 372 -181 527 -246 581 -246 40 0 158 50
458 195 140 67 278 132 305 144 l51 22 59 -27 c33 -14 184 -86 335 -159 298
-143 374 -175 422 -175 40 0 158 51 501 217 155 75 293 136 307 136 14 0 176
-72 360 -160 382 -182 407 -193 456 -193 50 0 178 56 524 231 360 181 445 230
470 272 58 95 19 234 -80 285 -85 44 -122 31 -617 -207 -149 -72 -278 -131
-286 -131 -20 0 -90 32 -407 185 -284 137 -374 175 -414 175 -38 0 -114 -29
-301 -118 -99 -46 -256 -120 -349 -164 -128 -61 -175 -78 -194 -73 -14 3 -150
66 -301 139 -456 221 -473 227 -552 201 -30 -10 -157 -67 -284 -127 -484 -231
-463 -223 -504 -208 -20 7 -160 72 -311 145 -297 144 -437 205 -469 205 -37 0
-133 -41 -456 -196 -176 -84 -331 -155 -345 -159 -30 -7 -54 3 -420 180 -151
73 -297 141 -325 150 -75 25 -135 28 -171 10z"/>
</g>
</svg>
